<svg width="96" height="24" viewBox="0 0 96 24" fill="none" xmlns="http://www.w3.org/2000/svg">
<g clip-path="url(#clip0_27_210)">
<path d="M52.5915 7.53005C52.596 7.53005 52.602 7.53005 52.608 7.53005C52.7647 7.53005 52.9102 7.5788 53.0295 7.6628L53.0272 7.6613C53.1142 7.73705 53.1727 7.84355 53.187 7.96355V7.9658C53.202 8.0573 53.2102 8.1623 53.2102 8.26955C53.2102 8.3183 53.2087 8.3663 53.205 8.4143V8.40755C53.0362 10.1843 52.3042 14.493 51.9322 16.482C51.7747 17.3243 51.465 17.6063 51.165 17.6333C50.5132 17.694 50.0182 17.2028 49.3867 16.7888C48.3982 16.14 47.8395 15.7365 46.8802 15.1043C45.771 14.3745 46.4902 13.9718 47.1217 13.3163C47.2875 13.1438 50.1607 10.53 50.217 10.293C50.22 10.2788 50.2215 10.263 50.2215 10.2465C50.2215 10.188 50.1997 10.1348 50.1645 10.0943C50.1255 10.0688 50.0767 10.0545 50.0257 10.0545C49.992 10.0545 49.9597 10.0613 49.9297 10.0725L49.9312 10.0718C49.8322 10.0943 48.2532 11.1378 45.1942 13.2023C44.8605 13.4655 44.439 13.632 43.98 13.6515H43.9755C43.3252 13.5728 42.735 13.428 42.1747 13.2218L42.2302 13.2398C41.5267 13.0103 40.968 12.8895 41.016 12.501C41.0415 12.299 41.32 12.0923 41.8515 11.8808C45.1255 10.4543 47.3087 9.51405 48.4012 9.06005C49.6065 8.4203 51.0037 7.8938 52.473 7.55255L52.5907 7.5293L52.5915 7.53005ZM47.9475 0.768799C41.721 0.783799 36.6787 5.83505 36.6787 12.0638C36.6787 18.3015 41.7352 23.3588 47.9737 23.3588C54.2122 23.3588 59.2687 18.3023 59.2687 12.0638C59.2687 5.83505 54.2265 0.783799 48.0015 0.768799H48C47.9825 0.768799 47.965 0.768799 47.9475 0.768799Z" fill="#F5E2C3"/>
</g>
<g clip-path="url(#clip1_27_210)">
<path d="M84 0.47998C77.6376 0.47998 72.48 5.63758 72.48 12C72.48 18.3624 77.6376 23.52 84 23.52C90.3624 23.52 95.52 18.3624 95.52 12C95.52 5.63758 90.3624 0.47998 84 0.47998ZM88.4304 13.4772C88.4304 13.4772 89.4492 14.4828 89.7 14.9496C89.7072 14.9592 89.7108 14.9688 89.7132 14.9736C89.8152 15.1452 89.8392 15.2784 89.7888 15.378C89.7048 15.5436 89.4168 15.6252 89.3184 15.6324H87.5184C87.3936 15.6324 87.132 15.6 86.8152 15.3816C86.5716 15.2112 86.3316 14.9316 86.0976 14.6592C85.7484 14.2536 85.446 13.9032 85.1412 13.9032C85.1025 13.9031 85.064 13.9092 85.0272 13.9212C84.7968 13.9956 84.5016 14.3244 84.5016 15.2004C84.5016 15.474 84.2856 15.6312 84.1332 15.6312H83.3088C83.028 15.6312 81.5652 15.5328 80.2692 14.166C78.6828 12.492 77.2548 9.13438 77.2428 9.10318C77.1528 8.88598 77.3388 8.76958 77.5416 8.76958H79.3596C79.602 8.76958 79.6812 8.91718 79.7364 9.04798C79.8012 9.20038 80.0388 9.80638 80.4288 10.488C81.0612 11.5992 81.4488 12.0504 81.7596 12.0504C81.8179 12.0497 81.8751 12.0349 81.9264 12.0072C82.332 11.7816 82.2564 10.3356 82.2384 10.0356C82.2384 9.97918 82.2372 9.38878 82.0296 9.10558C81.8808 8.90038 81.6276 8.82238 81.474 8.79358C81.5361 8.70779 81.6181 8.63823 81.7128 8.59078C81.9912 8.45158 82.4928 8.43118 82.9908 8.43118H83.268C83.808 8.43838 83.9472 8.47318 84.1428 8.52238C84.5388 8.61718 84.5472 8.87278 84.5124 9.74758C84.5016 9.99598 84.4908 10.2768 84.4908 10.608C84.4908 10.68 84.4872 10.7568 84.4872 10.8384C84.4752 11.2836 84.4608 11.7888 84.7752 11.9964C84.8162 12.0221 84.8636 12.0358 84.912 12.036C85.0212 12.036 85.35 12.036 86.2404 10.5084C86.515 10.0167 86.7536 9.50575 86.9544 8.97958C86.9724 8.94838 87.0252 8.85238 87.0876 8.81518C87.1336 8.7917 87.1847 8.77976 87.2364 8.78038H89.3736C89.6064 8.78038 89.766 8.81518 89.796 8.90518C89.8488 9.04798 89.7864 9.48358 88.8108 10.8048L88.3752 11.3796C87.4908 12.5388 87.4908 12.5976 88.4304 13.4772Z" fill="#F5E2C3"/>
</g>
<g clip-path="url(#clip2_27_210)">
<path fill-rule="evenodd" clip-rule="evenodd" d="M18.9852 16.9453C18.696 17.764 17.5464 18.4412 16.6296 18.6393C16.002 18.7725 15.1836 18.8779 12.426 17.7352C9.3288 16.452 5.028 11.8812 5.028 8.83945C5.028 7.29099 5.9208 5.48789 7.482 5.48789C8.2332 5.48789 8.3988 5.50254 8.646 6.09551C8.9352 6.79412 9.64081 8.51535 9.7248 8.6918C10.0716 9.41561 9.37199 9.83934 8.86439 10.4695C8.70239 10.6592 8.51881 10.8643 8.72401 11.2172C8.92801 11.5629 9.6336 12.7129 10.6704 13.6359C12.0096 14.8291 13.0956 15.21 13.4844 15.3721C13.7736 15.4921 14.1192 15.4641 14.3304 15.2385C14.598 14.9492 14.9304 14.4692 15.2688 13.9963C15.5076 13.6578 15.8112 13.6155 16.1292 13.7355C16.344 13.81 19.074 15.0778 19.1892 15.2807C19.2744 15.4283 19.2744 16.1267 18.9852 16.9453ZM12.0024 0H11.9964C5.38079 0 0 5.38242 0 12C0 14.624 0.846008 17.0584 2.28481 19.033L0.789606 23.492L5.40121 22.0184C7.29841 23.2739 9.5628 24 12.0024 24C18.618 24 24 18.6176 24 12C24 5.38242 18.618 0 12.0024 0Z" fill="#F5E2C3"/>
</g>
<defs>
<clipPath id="clip0_27_210">
<rect width="24" height="24" fill="white" transform="translate(36)"/>
</clipPath>
<clipPath id="clip1_27_210">
<rect width="24" height="24" fill="white" transform="translate(72)"/>
</clipPath>
<clipPath id="clip2_27_210">
<rect width="24" height="24" fill="white"/>
</clipPath>
</defs>
</svg>
