<svg width="148" height="40" viewBox="0 0 148 40" fill="none" xmlns="http://www.w3.org/2000/svg">
<path d="M145.019 22.7814C145.341 23.1879 145.636 23.5088 145.903 23.744C146.172 23.9792 146.402 24.1611 146.595 24.2895C146.788 24.4178 146.943 24.5194 147.061 24.5944C147.179 24.6692 147.238 24.7493 147.238 24.835C147.238 24.9418 147.174 25.0328 147.045 25.1078C146.916 25.1826 146.756 25.22 146.563 25.22C146.327 25.22 145.989 25.1664 145.55 25.0596C145.111 24.9527 144.629 24.7493 144.103 24.4499C143.578 24.1505 143.048 23.7225 142.512 23.1664C141.976 22.6103 141.483 21.8829 141.033 20.9845C140.455 21.4552 139.662 21.958 138.654 22.4926C137.647 23.0275 136.57 23.5194 135.423 23.9686C134.277 24.4178 133.135 24.7923 132 25.0916C130.864 25.391 129.889 25.5409 129.074 25.5409C128.624 25.5409 128.169 25.4982 127.708 25.4125C127.247 25.3269 126.824 25.172 126.438 24.9474C126.052 24.7228 125.736 24.4072 125.49 24.0007C125.244 23.5942 125.12 23.0702 125.12 22.4284C125.12 21.6798 125.484 20.8723 126.213 20.0059C126.942 19.1396 127.863 18.3374 128.978 17.5994C130.092 16.8614 131.303 16.2517 132.611 15.7704C133.918 15.2891 135.15 15.0486 136.308 15.0486C136.672 15.0486 136.999 15.0539 137.288 15.0645C137.577 15.0754 137.84 15.1234 138.076 15.209C138.483 15.4657 138.74 15.7598 138.847 16.0913C138.954 16.423 138.965 16.7545 138.88 17.086C138.794 17.4177 138.628 17.7277 138.381 18.0165C138.135 18.3053 137.851 18.5352 137.529 18.7065H137.143C137.036 18.7065 136.902 18.701 136.741 18.6904C136.581 18.6798 136.404 18.6744 136.211 18.6744C135.547 18.6744 134.861 18.7813 134.154 18.9953C133.446 19.2091 132.771 19.4819 132.128 19.8134C131.485 20.1449 130.896 20.5032 130.36 20.8882C129.824 21.2733 129.396 21.6371 129.074 21.9792C129.953 21.9792 130.816 21.8723 131.662 21.6583C132.509 21.4446 133.328 21.177 134.121 20.8561C134.915 20.5353 135.67 20.1823 136.388 19.7975C137.106 19.4125 137.77 19.0595 138.381 18.7386C138.992 18.4177 139.549 18.1502 140.053 17.9364C140.556 17.7224 140.98 17.6156 141.323 17.6156C141.858 17.6156 142.271 17.776 142.56 18.0969C142.85 18.4177 143.101 18.8293 143.316 19.3321C143.53 19.8349 143.755 20.391 143.991 21.0006C144.227 21.6103 144.569 22.2038 145.019 22.7814Z" fill="#BE713C"/>
<path d="M113.964 23.5195C114.157 23.5195 114.404 23.5142 114.703 23.5036C115.004 23.4927 115.325 23.4821 115.668 23.4715C116.011 23.4606 116.333 23.45 116.632 23.4394C116.932 23.4285 117.179 23.4232 117.372 23.4232C117.993 23.4232 118.411 23.4927 118.626 23.6319C118.84 23.7762 118.91 23.9419 118.835 24.1398C118.759 24.3323 118.567 24.5304 118.256 24.7388C117.945 24.9419 117.586 25.1238 117.179 25.2737C116.536 25.5142 115.77 25.7173 114.88 25.8886C113.991 26.065 113.118 26.1506 112.26 26.1506C110.782 26.1506 109.656 25.8457 108.885 25.2363C108.113 24.6266 107.824 23.8083 108.017 22.7815C108.103 22.2681 108.317 21.8242 108.66 21.45C109.003 21.0755 109.41 20.7387 109.882 20.4391C110.353 20.1397 110.862 19.8724 111.408 19.6372C111.955 19.4017 112.475 19.1879 112.967 18.9954C113.096 18.9313 113.316 18.8509 113.627 18.7546C113.937 18.6584 114.253 18.5568 114.575 18.4499C114.896 18.3428 115.18 18.2466 115.427 18.1612C115.673 18.0755 115.786 18.0113 115.764 17.9686C115.722 17.9045 115.486 17.8509 115.057 17.8082C114.629 17.7652 114.093 17.744 113.45 17.744C112.85 17.744 112.357 17.792 111.971 17.8883C111.585 17.9845 111.124 18.0649 110.589 18.1291C110.246 17.9792 109.978 17.7814 109.785 17.5353C109.592 17.2895 109.49 17.0219 109.48 16.7331C109.469 16.4444 109.56 16.1611 109.753 15.883C109.946 15.6048 110.246 15.3696 110.653 15.177C110.931 15.1129 111.333 15.0325 111.858 14.9363C112.384 14.84 113.021 14.792 113.771 14.792C114.179 14.792 114.688 14.8456 115.298 14.9524C115.909 15.0593 116.498 15.225 117.066 15.4497C117.634 15.669 118.122 15.9577 118.529 16.3107C118.936 16.6637 119.14 17.0914 119.14 17.6048C119.14 18.0755 118.979 18.4979 118.658 18.883C118.336 19.268 117.929 19.621 117.436 19.9366C116.943 20.2574 116.413 20.5568 115.845 20.835C115.277 21.1129 114.736 21.3537 114.221 21.5677C114.05 21.6319 113.814 21.7173 113.514 21.8242C113.214 21.9313 112.909 22.0435 112.598 22.1612C112.287 22.2789 112.014 22.4017 111.778 22.5301C111.542 22.6584 111.414 22.7762 111.392 22.8777C111.349 23.0917 111.548 23.2522 111.987 23.359C112.427 23.4662 113.085 23.5195 113.964 23.5195Z" fill="#BE713C"/>
<path d="M97.6596 14.8242C98.3669 14.8242 98.9239 14.9953 99.3312 15.3376C99.7439 15.68 100.049 16.0971 100.253 16.589C100.456 17.0809 100.585 17.589 100.639 18.113C100.692 18.637 100.719 19.081 100.719 19.4448C100.719 21.6265 100.344 23.8137 99.599 26.0063C98.8543 28.1991 97.7722 30.2259 96.3524 32.0867C94.9324 33.9477 93.1963 35.5574 91.1389 36.9157C89.0814 38.2742 86.7344 39.1992 84.0987 39.6914C83.8628 39.7341 83.5733 39.7821 83.2307 39.8356C82.8876 39.8892 82.5556 39.9319 82.234 39.964C81.9126 39.9961 81.6393 40.0067 81.4142 39.9961C81.1892 39.9855 81.0767 39.9372 81.0767 39.8518C81.0767 39.702 81.2213 39.5309 81.5105 39.3384C81.7998 39.1459 82.1803 38.9266 82.6519 38.6805C83.1232 38.4347 83.6593 38.1671 84.2593 37.8783C84.8593 37.5895 85.4702 37.2633 86.092 36.8998C87.6346 36.0228 89.0867 34.9265 90.4478 33.6109C91.8087 32.2954 92.993 30.8567 94.0001 29.2953C95.0075 27.7337 95.8004 26.0866 96.3792 24.3539C96.9577 22.6212 97.247 20.8993 97.247 19.1881C96.647 19.8511 95.9504 20.557 95.1574 21.3056C94.3645 22.0545 93.5286 22.7442 92.6499 23.3754C91.7712 24.0062 90.8658 24.5305 89.9335 24.9476C89.0013 25.3645 88.0958 25.5732 87.2169 25.5732C86.8953 25.5732 86.5203 25.5196 86.092 25.4128C85.6631 25.3059 85.2505 25.1025 84.854 24.8031C84.4575 24.5037 84.12 24.0813 83.8413 23.5358C83.5627 22.9903 83.4236 22.2791 83.4236 21.4019C83.4236 21.1025 83.4557 20.7227 83.52 20.2629C83.5842 19.8031 83.6646 19.3271 83.7609 18.8351C83.8575 18.343 83.97 17.8616 84.0987 17.3912C84.2272 16.9205 84.3665 16.5248 84.5164 16.204C84.8381 15.8831 85.1807 15.6585 85.5453 15.5301C85.9096 15.4018 86.247 15.3856 86.558 15.4819C86.8687 15.5781 87.1312 15.7815 87.3453 16.0915C87.5598 16.4018 87.6778 16.8349 87.6991 17.3912C87.1633 18.7389 86.8953 20.1398 86.8953 21.5944C86.8953 21.894 86.9919 22.0436 87.1845 22.0436C87.892 22.0436 88.5886 21.8673 89.2637 21.5143C89.9388 21.1613 90.5924 20.7174 91.214 20.1825C91.8355 19.6479 92.4408 19.065 93.0357 18.4339C93.6249 17.803 94.1877 17.2199 94.7233 16.6853C95.2646 16.1504 95.7736 15.7065 96.2558 15.3535C96.738 15.0006 97.2096 14.8242 97.6596 14.8242Z" fill="#BE713C"/>
<path d="M66.8675 14.9844C67.1673 14.9844 67.6015 15.0112 68.1694 15.0645C68.7375 15.118 69.3588 15.2196 70.0339 15.3694C70.709 15.5192 71.3947 15.7224 72.0916 15.9791C72.7882 16.2358 73.4256 16.562 74.0042 16.9576C74.5829 17.3535 75.0545 17.8348 75.4189 18.4015C75.783 18.9685 75.9653 19.637 75.9653 20.4069C75.9653 21.1128 75.767 21.7278 75.3706 22.252C74.9741 22.776 74.4595 23.2146 73.8274 23.5676C73.1953 23.9206 72.4825 24.2093 71.6896 24.434C70.8966 24.6586 70.1146 24.8349 69.3429 24.9633C68.5714 25.0916 67.848 25.1773 67.1729 25.22C66.4975 25.2627 65.9567 25.2841 65.5493 25.2841C64.8636 25.2841 64.1991 25.2735 63.5561 25.2521C62.9131 25.2306 62.3561 25.1664 61.8845 25.0595C61.3272 26.3003 60.8344 27.5891 60.4058 28.9259C59.977 30.263 59.5965 31.4823 59.2645 32.5839C58.9322 33.6855 58.6323 34.5945 58.3643 35.3113C58.0966 36.0278 57.8447 36.3861 57.6091 36.3861C57.3729 36.3861 57.1911 36.1989 57.0624 35.8247C56.9337 35.4503 56.848 34.9528 56.8052 34.3325C56.7625 33.7122 56.7678 32.9901 56.8212 32.1667C56.8748 31.3431 56.9767 30.4767 57.1266 29.5677C57.2766 28.6586 57.4642 27.7387 57.6892 26.8082C57.9142 25.8776 58.1876 24.9954 58.5092 24.1611C57.4589 23.6904 56.7195 23.3215 56.2909 23.0542C55.8624 22.7866 55.6479 22.5676 55.6479 22.3963C55.6479 22.2894 55.7658 22.2091 56.0014 22.1558C56.2371 22.1022 56.5375 22.0754 56.9016 22.0754C57.1158 22.0754 57.4589 22.0863 57.9304 22.1075C58.4017 22.129 58.916 22.1505 59.4736 22.1717C59.8594 21.252 60.2933 20.3857 60.7755 19.5729C61.2577 18.7598 61.7452 18.0539 62.238 17.4551C62.1096 17.1127 62.0721 16.7598 62.1257 16.3962C62.1793 16.0326 62.3134 15.6688 62.5275 15.3052C62.656 15.2838 62.8168 15.2517 63.0097 15.209C63.2026 15.1663 63.4651 15.1286 63.7973 15.0966C64.1296 15.0645 64.5422 15.0379 65.035 15.0165C65.5278 14.995 66.1387 14.9844 66.8675 14.9844ZM63.2026 22.1075C63.5882 22.1075 64.0922 22.0916 64.7134 22.0595C65.3349 22.0274 65.9888 21.9792 66.6745 21.915C67.3603 21.8508 68.0515 21.776 68.7482 21.6904C69.4448 21.605 70.0663 21.4978 70.6127 21.3695C71.1591 21.2411 71.6092 21.0969 71.9629 20.9364C72.3166 20.776 72.4931 20.5888 72.4931 20.3748C72.4931 20.1181 72.2575 19.8776 71.7859 19.6529C71.3146 19.4283 70.7308 19.2411 70.0339 19.0915C69.3375 18.9417 68.5982 18.8293 67.8156 18.7545C67.0336 18.6797 66.3317 18.6635 65.7101 18.7065C65.2816 19.2199 64.8527 19.7277 64.4241 20.2305C63.9956 20.7333 63.5882 21.3589 63.2026 22.1075Z" fill="#BE713C"/>
<path d="M42.0494 10.2676C42.5852 10.3105 43.1587 10.38 43.7693 10.4763C44.3802 10.5725 44.9481 10.6903 45.4733 10.8292C45.9982 10.9682 46.4589 11.1127 46.8554 11.2623C47.2521 11.4121 47.5145 11.5405 47.6432 11.6473C47.6432 11.7545 47.5573 11.8881 47.3861 12.0486C47.2147 12.209 46.9949 12.3586 46.7269 12.4978C46.4589 12.6367 46.1375 12.7651 45.7623 12.8828C45.3876 13.0003 44.9964 13.0698 44.5891 13.0913C43.8391 13.1554 43.03 13.2143 42.1619 13.2679C41.2939 13.3212 40.4097 13.3747 39.5098 13.4283C38.6096 13.4816 37.7254 13.5352 36.8574 13.5887C35.9893 13.642 35.1699 13.7009 34.3982 13.7651C33.8411 13.8078 33.3587 13.8507 32.9516 13.8934C32.5445 13.9361 32.1693 13.9738 31.8264 14.0059C31.4835 14.038 31.1569 14.07 30.8459 14.1021C30.5351 14.1342 30.1975 14.1608 29.8332 14.1822C29.5331 14.0754 29.2868 13.9149 29.0938 13.7009C28.9009 13.4869 28.7725 13.2517 28.7083 12.995C28.6438 12.7383 28.6491 12.471 28.7242 12.1928C28.799 11.9149 28.9439 11.6688 29.1583 11.4548C31.1728 11.0698 33.2892 10.781 35.5072 10.5885C37.7254 10.3959 39.9063 10.2891 42.0494 10.2676Z" fill="#BE713C"/>
<path d="M34.8805 15.4659C35.9093 15.4659 36.6755 15.8456 37.1792 16.6048C37.6828 17.3643 37.8917 18.3002 37.806 19.4126C38.3205 18.835 38.8614 18.2628 39.4295 17.6958C39.9974 17.1291 40.5974 16.621 41.2298 16.1718C41.8622 15.7226 42.5318 15.3534 43.239 15.0646C43.9462 14.7759 44.6962 14.6316 45.4894 14.6316C46.5397 14.6316 47.4077 14.8456 48.0935 15.2733C48.7792 15.7011 49.3203 16.2198 49.7168 16.8294C50.1132 17.4391 50.3919 18.0808 50.5527 18.7547C50.7135 19.4285 50.7939 20.0114 50.7939 20.5033C50.7939 21.7868 50.6116 23.0703 50.2472 24.3538C49.8829 25.6373 49.4543 26.7603 48.9615 27.7229C48.254 29.156 47.6646 30.1295 47.1933 30.6426C46.7217 31.156 46.411 31.4127 46.2608 31.4127C46.1324 31.4127 46.0734 31.3059 46.0841 31.0919C46.0949 30.8781 46.1323 30.6267 46.1966 30.3379C46.2608 30.0492 46.3412 29.7498 46.4375 29.4395C46.5341 29.1292 46.6145 28.8672 46.6788 28.6535C46.9144 27.9046 47.1665 26.9582 47.4343 25.8136C47.7023 24.6694 47.8363 23.2628 47.8363 21.5943C47.8363 20.4606 47.5948 19.5943 47.1127 18.9955C46.6305 18.3964 46.1217 18.097 45.5857 18.097C44.9644 18.097 44.3642 18.2787 43.7854 18.6425C43.2069 19.0061 42.6334 19.4553 42.0658 19.9899C41.4976 20.5248 40.9459 21.113 40.4098 21.7547C39.8743 22.3965 39.3382 22.9849 38.8027 23.5195C38.2669 24.0544 37.7364 24.5036 37.2113 24.8672C36.6861 25.2308 36.1665 25.4127 35.6522 25.4127C34.9877 25.4127 34.5323 25.1774 34.286 24.7067C34.0395 24.236 33.9002 23.68 33.8681 23.0382C33.836 22.3965 33.8681 21.7494 33.9644 21.0971C34.061 20.4447 34.1411 19.9366 34.2054 19.573C33.7338 19.8724 33.241 20.2843 32.7267 20.8083C32.2122 21.3323 31.6819 21.8457 31.1355 22.3485C30.5888 22.851 30.0263 23.2896 29.4477 23.664C28.869 24.0382 28.2796 24.2254 27.6795 24.2254C27.4009 24.2254 27.1331 24.1507 26.8757 24.0008C26.6186 23.851 26.3935 23.6585 26.2006 23.4233C26.0077 23.188 25.8524 22.926 25.7344 22.6372C25.6168 22.3485 25.5576 22.0544 25.5576 21.7547C25.5576 20.8563 25.6168 20.097 25.7344 19.4768C25.8524 18.8562 25.9809 18.3537 26.1202 17.974C26.2598 17.5889 26.3935 17.3161 26.5222 17.145C26.6507 16.9793 26.7152 16.8936 26.7152 16.8936C27.0365 16.6369 27.3635 16.4444 27.6955 16.3054C28.0277 16.1665 28.3332 16.1344 28.6118 16.2092C28.8902 16.284 29.1314 16.4818 29.335 16.7974C29.5385 17.1129 29.6834 17.5889 29.7689 18.2254L29.4477 19.188C29.8121 18.8883 30.2189 18.5248 30.669 18.1023C31.1191 17.6746 31.5856 17.2681 32.0678 16.8777C32.55 16.4873 33.0321 16.1503 33.5143 15.8777C33.9965 15.6048 34.4519 15.4659 34.8805 15.4659Z" fill="#BE713C"/>
<path d="M14.0484 24.8671C13.9412 24.9098 13.5824 24.9849 12.9715 25.0918C12.3606 25.1986 11.5409 25.2628 10.5123 25.2843C9.24777 25.2843 7.99388 25.0864 6.75086 24.6908C5.50785 24.2949 4.38797 23.7173 3.38618 22.9581C2.38413 22.1986 1.5697 21.2575 0.942881 20.1344C0.316064 19.0113 0 17.7119 0 16.2359C0 14.4605 0.4124 12.8294 1.23214 11.3427C2.05745 9.8561 3.09666 8.51374 4.35055 7.3159C5.60975 6.11781 6.9974 5.06449 8.51905 4.15518C10.0407 3.24612 11.5141 2.48689 12.9394 1.87723C14.3645 1.26757 15.6505 0.807489 16.7971 0.49748C17.9436 0.187219 18.7636 0.0214757 19.2564 0C19.6637 0.0856503 20.0063 0.240781 20.2852 0.465392C20.5636 0.690003 20.7512 0.952007 20.8476 1.2514C20.9441 1.55105 20.9335 1.87723 20.8154 2.23019C20.6979 2.58315 20.4352 2.91994 20.0281 3.24082C19.7707 3.34769 19.176 3.53491 18.2439 3.80247C17.3114 4.06978 16.2345 4.44396 15.0128 4.92527C13.7912 5.40658 12.4999 5.98946 11.1391 6.67416C9.778 7.3586 8.52967 8.16078 7.39387 9.0807C6.25806 10.0004 5.32024 11.0431 4.5809 12.2091C3.84156 13.3748 3.47164 14.6743 3.47164 16.1076C3.47164 17.3696 3.80414 18.4444 4.46838 19.3322C5.13287 20.22 5.97386 20.9472 6.99209 21.5141C8.01006 22.0809 9.12994 22.4768 10.3515 22.7014C11.5732 22.926 12.7412 22.9849 13.8555 22.8777C15.3341 22.7494 16.3524 22.7226 16.9097 22.7976C17.4667 22.8724 17.6917 23.0114 17.5848 23.2148C17.4776 23.4179 17.0917 23.664 16.4272 23.9528C15.763 24.2416 14.97 24.5463 14.0484 24.8671Z" fill="#BE713C"/>
</svg>
